<svg width="166" height="105" viewBox="0 0 166 105" fill="white" xmlns="http://www.w3.org/2000/svg">
<path d="M15.0406 102.832H0.640625L0.736625 15.952L9.76063 15.856V19.6H4.38463V99.184H14.9446L15.0406 102.832ZM161.597 99.184V19.6H156.221V15.856L165.245 15.952L165.341 102.832H150.941L151.037 99.184H161.597Z" fill="#EDE74D"/>
<path d="M66.2461 78.352V82H53.3821C54.6621 80.912 55.7821 79.248 56.7421 77.008C52.9661 79.184 48.1341 80.272 42.2461 80.272C37.2541 80.272 32.8381 79.248 28.9981 77.2C25.2221 75.152 22.2781 72.304 20.1661 68.656C18.0541 64.944 16.9981 60.688 16.9981 55.888C16.9981 51.92 17.9261 48.24 19.7821 44.848C21.7021 41.392 24.2621 38.672 27.4621 36.688C30.7261 34.64 34.2141 33.616 37.9261 33.616C42.4061 33.616 46.5981 34.896 50.5021 37.456C54.4701 40.016 57.6381 43.408 60.0061 47.632C62.3741 51.792 63.5581 56.208 63.5581 60.88C63.5581 63.824 63.2381 66.864 62.5981 70C62.0221 73.072 61.2221 75.856 60.1981 78.352H66.2461ZM42.2461 76.624C46.0221 76.624 49.2541 76.144 51.9421 75.184C54.6301 74.224 56.9021 72.72 58.7581 70.672C59.5261 67.472 59.9101 64.208 59.9101 60.88C59.9101 56.848 58.8861 53.008 56.8381 49.36C54.7901 45.712 52.0701 42.8 48.6781 40.624C45.2861 38.384 41.7021 37.264 37.9261 37.264C34.8541 37.264 31.9741 38.128 29.2861 39.856C26.6621 41.52 24.5501 43.792 22.9501 46.672C21.4141 49.488 20.6461 52.56 20.6461 55.888C20.6461 59.984 21.5421 63.6 23.3341 66.736C25.1261 69.872 27.6541 72.304 30.9181 74.032C34.1821 75.76 37.9581 76.624 42.2461 76.624ZM31.6861 20.464C31.4941 19.888 31.1421 19.472 30.6301 19.216C30.1821 18.896 29.6381 18.736 28.9981 18.736C28.5501 18.736 28.1981 18.8 27.9421 18.928C27.3021 19.12 26.7901 19.472 26.4061 19.984C26.0221 20.496 25.8301 21.072 25.8301 21.712C25.8301 21.904 25.8941 22.192 26.0221 22.576C26.4061 23.6 27.2061 24.112 28.4221 24.112C28.9341 24.112 29.3181 24.048 29.5741 23.92C30.3421 23.664 30.9501 23.216 31.3981 22.576C31.8461 21.936 31.9421 21.232 31.6861 20.464ZM24.2941 20.56C24.0381 19.984 23.6541 19.536 23.1421 19.216C22.6301 18.896 22.0861 18.736 21.5101 18.736C21.1901 18.736 20.8381 18.8 20.4541 18.928C19.7501 19.248 19.1741 19.792 18.7261 20.56C18.3421 21.264 18.2781 21.936 18.5341 22.576C18.9181 23.664 19.7501 24.208 21.0301 24.208C22.1181 24.208 22.9821 23.856 23.6221 23.152C24.3261 22.384 24.5501 21.52 24.2941 20.56ZM82.2016 78.352V82H65.9776V78.352H66.2656C69.5296 78.352 71.9936 77.744 73.6576 76.528C75.3856 75.312 76.6016 73.2 77.3056 70.192C78.0096 67.12 78.3936 62.608 78.4576 56.656C78.4576 56.336 78.6496 56.176 79.0336 56.176L81.6256 56.464C81.7536 56.464 81.8496 56.528 81.9136 56.656C82.0416 56.72 82.1056 56.816 82.1056 56.944C82.0416 62.768 81.6896 67.376 81.0496 70.768C80.4096 74.096 79.3216 76.624 77.7856 78.352H82.2016ZM74.7136 50.128C75.3536 49.936 75.8336 49.584 76.1536 49.072C76.5376 48.496 76.7296 47.888 76.7296 47.248C76.7296 46.416 76.4096 45.712 75.7696 45.136C75.1936 44.496 74.5536 44.176 73.8496 44.176C73.0816 44.176 72.4736 44.432 72.0256 44.944C71.5776 45.456 71.3536 46.096 71.3536 46.864C71.3536 47.824 71.6736 48.688 72.3136 49.456C73.0176 50.16 73.8176 50.384 74.7136 50.128ZM129.723 7.504C129.915 9.104 130.011 10.768 130.011 12.496C130.011 21.2 127.195 29.008 121.563 35.92C115.931 42.832 108.123 48.048 98.1391 51.568C101.851 52.976 104.763 55.376 106.875 58.768C109.051 62.096 110.139 65.584 110.139 69.232C110.139 72.88 108.987 75.92 106.683 78.352C104.443 80.784 101.179 82 96.8911 82H82.2031V78.352H96.8911C99.9631 78.352 102.267 77.552 103.803 75.952C105.403 74.352 106.203 72.304 106.203 69.808C106.203 67.44 105.499 65.072 104.091 62.704C102.747 60.272 100.827 58.288 98.3311 56.752C95.8991 55.152 93.0831 54.352 89.8831 54.352C89.3711 54.352 88.5391 54.416 87.3871 54.544L86.4271 50.896C94.4911 49.168 101.499 46.384 107.451 42.544C113.403 38.704 117.979 34.064 121.179 28.624C124.443 23.184 126.075 17.296 126.075 10.96C126.075 9.424 125.979 7.88799 125.787 6.352C125.275 3.28 124.891 1.36 124.635 0.591995L128.379 0.687994C129.083 3.44 129.531 5.712 129.723 7.504ZM129.511 53.52L147.271 45.552L148.231 47.856L130.471 55.824L129.511 53.52ZM126.08 104.368C125.824 104.624 125.6 104.592 125.408 104.272L123.68 102.352C123.552 102.096 123.584 101.872 123.776 101.68C128.192 97.648 131.68 92.656 134.24 86.704C136.864 80.752 138.176 74.672 138.176 68.464C138.176 67.632 138.112 66.384 137.984 64.72C137.984 64.592 138.016 64.464 138.08 64.336C138.208 64.208 138.336 64.144 138.464 64.144L141.152 63.856C141.472 63.856 141.632 64.016 141.632 64.336C141.696 65.104 141.728 66.288 141.728 67.888C141.728 74.736 140.32 81.424 137.504 87.952C134.688 94.544 130.88 100.016 126.08 104.368Z" fill="white"/>
</svg>
